<?xml version="1.0" standalone="no"?>
<!DOCTYPE svg PUBLIC "-//W3C//DTD SVG 20010904//EN"
 "http://www.w3.org/TR/2001/REC-SVG-20010904/DTD/svg10.dtd">
<svg version="1.0" xmlns="http://www.w3.org/2000/svg"
 width="100.000000pt" height="100.000000pt" viewBox="0 0 100.000000 100.000000"
 preserveAspectRatio="xMidYMid meet">

<g transform="translate(0.000000,100.000000) scale(0.100000,-0.100000)"
fill="#000000" stroke="none">
<path d="M253 705 c-3 -9 1 -23 10 -33 8 -9 18 -48 22 -87 4 -38 10 -74 13
-80 4 -5 7 -35 7 -65 0 -102 70 -159 194 -160 123 0 196 59 196 160 0 30 4 61
9 69 5 7 11 43 13 80 3 38 12 73 20 83 9 10 13 24 10 33 -9 21 -48 19 -54 -4
-2 -10 -27 -29 -55 -42 -27 -13 -57 -32 -66 -44 -14 -16 -29 -20 -75 -20 -38
0 -57 4 -57 12 0 7 -27 26 -60 43 -32 16 -64 39 -70 50 -13 24 -48 27 -57 5z
m271 -171 c24 -9 19 -49 -8 -63 -20 -11 -27 -10 -45 5 -25 22 -26 28 -5 48 16
17 33 20 58 10z m-65 -100 l39 -25 43 27 43 27 18 -23 c49 -61 -1 -120 -102
-120 -77 0 -120 28 -120 79 0 16 26 61 36 61 2 0 22 -12 43 -26z"/>
<path d="M414 409 c-3 -6 -2 -15 4 -21 13 -13 32 -2 32 18 0 16 -26 19 -36 3z"/>
<path d="M550 400 c0 -15 5 -20 18 -18 9 2 17 10 17 18 0 8 -8 16 -17 18 -13
2 -18 -3 -18 -18z"/>
<path d="M487 374 c-14 -15 -6 -34 14 -34 14 0 19 5 17 17 -3 18 -20 27 -31
17z"/>
</g>
</svg>
